<?xml version="1.0" encoding="utf-8"?>
<!-- Generator: Adobe Illustrator 15.1.0, SVG Export Plug-In . SVG Version: 6.00 Build 0)  -->
<!DOCTYPE svg PUBLIC "-//W3C//DTD SVG 1.1//EN" "http://www.w3.org/Graphics/SVG/1.1/DTD/svg11.dtd">
<svg version="1.1" id="_x23_Layer_1" xmlns="http://www.w3.org/2000/svg" xmlns:xlink="http://www.w3.org/1999/xlink" x="0px"
	 y="0px" width="500px" height="300px" viewBox="0 0 500 300" enable-background="new 0 0 500 300" xml:space="preserve">
<path fill-rule="evenodd" clip-rule="evenodd" fill="#FFFFFF" stroke="#000000" stroke-width="1.0001" stroke-linecap="round" stroke-miterlimit="2.6131" d="
	M261.487,15.925c-5.947-3.908-33.361-1.007-35.346-3.718c-1.67-2.281-12.393,4.287-17.153,0.343
	c-0.058,0.047-13.626,2.243-17.529,5.754c-1.076,0.968-3.529-0.874-3.878-0.729c-0.091,0.486,0.309-0.288,0.782-0.9
	c-7.458,5.373-4.302,3.181-12,6.997c-2.331,1.155-18.989,5.069-19.875,7.628c-6.748,0-6.989,10.125-11.25,10.125
	c-6.195,0-0.251,26.625-5.625,26.625c5.073,12.26-6.455,47.547-8.218,61.875c-1.458,11.853-10.942,16.423,3.814,18.558
	c0.78,0.113,3.697-1.545,4.028-1.683c0.447,2.386,8.833-4.893,3.375,10.875c0.057,0.012,2.401,6.218,9,0.75
	c0.621,2.69,7.294-0.374,8.218,4.156c0.025,0.123-9.057,1.844-11.218,1.844c0,0.529-8.539,8.303,1.875,5.625
	c1.511-4.366,1.554,3.428,1.875,3.75c0-0.438-5.099,2.324-5.593,8.25c-0.435,5.224,0.343,3.423,0.343,7.5c1.181,2.214,3.149,6,6,6
	c0,2.522,10.994,7.755,14.904,8.593c0.034-0.12,14.242,0.35,16.596-0.622c6.095-2.514,5.043,17.739,6.343,23.808
	c-0.568,0.16,2.282,12.561,2.282,13.597c0.138,0,9.438,29.645,6.472,33.471c-0.086,0.111-8.346,22.404-3.096,20.154
	s18.75-9.75,26.625-15s17.625-13.5,29.25-17.25s21.376-8.25,29.25-7.125c7.875,1.125,19.876,1.875,19.876,1.875
	s-1.501-3-3.751-10.125s-5.999-6.75-6.375-17.25c-0.375-10.5-4.124-22.126-4.5-32.625c-0.375-10.5-3.75-18.75-1.5-20.625
	c6.657-0.3,6.89-5.452,7.844-10.061c-0.063-0.012-2.458-3.346,2.281-4.564c0-0.755,11.813-8.845,13.875-9.375
	c12.176-3.131,25.5-24.477,25.5-35.968c0-2.767,0.375-6.438,0.375-9.782c6.75,1.403-0.116-3.865,8.347,2.497
	c11.713,8.805,17.349-5.872,25.404-9.493c4.851-2.181,4.875-10.363,4.875-14.004c-0.037-0.006-5.688-4.689-1.029-7.747
	c5.934-3.892-3.87-13.132-4.221-13.628c1.871-0.387,1.825-13.125-4.875-13.125c0-16.303-11.158-9.979-14.347-16.404
	c-4.14-8.341-15.094-1.955-19.404-0.846c0,2.423-1.829-3.04-0.718,6c0.489,3.978-2.194,2.25-5.656,2.25
	c0,0.215-2.332,1.875-5.251,1.125c0-1.78-4.105-0.464-4.531-5.721c-0.675-8.304-10.959-2.81-15.654-13.779
	c-2.875-6.718-23.443,0.043-25.189-6.75C271.041,16.695,266.646,14.925,261.487,15.925z"/>
<path fill-rule="evenodd" clip-rule="evenodd" fill="none" stroke="#000000" stroke-width="1.0001" stroke-linecap="round" stroke-miterlimit="2.6131" d="
	M148.237,41.425c11.625,3,30.375,11.625,38.25,17.625c7.875,6,37.875,23.25,46.875,32.625c9,9.375,26.25,22.125,35.25,31.875
	s13.126,11.625,18.751,17.625c5.624,6,10.124,15,10.124,15"/>
<path fill-rule="evenodd" clip-rule="evenodd" fill="none" stroke="#000000" stroke-width="1.0001" stroke-linecap="round" stroke-miterlimit="2.6131" d="
	M142.988,71.425c7.5,1.5,30.75,9.375,40.5,15c9.75,5.625,28.875,16.875,28.875,16.875"/>
<path fill-rule="evenodd" clip-rule="evenodd" fill="none" stroke="#000000" stroke-width="1.0001" stroke-linecap="round" stroke-miterlimit="2.6131" d="
	M143.737,66.175c7.125,2.625,23.25,4.875,35.25,12s36.75,21,36.75,21"/>
<path fill-rule="evenodd" clip-rule="evenodd" fill="none" stroke="#000000" stroke-width="1.0001" stroke-linecap="round" stroke-miterlimit="2.6131" d="
	M181.519,101.52c-3.318-1.137-8.486-3.535-11.625-3.921c-8.849-1.09-5.625-0.938-13.077-3.482
	c-5.723-1.954-11.458-0.417-14.609,4.794c-0.274,0.454-0.365,0.756-0.626,1.109"/>
<path fill-rule="evenodd" clip-rule="evenodd" fill="none" stroke="#000000" stroke-width="1.0001" stroke-linecap="round" stroke-miterlimit="2.6131" d="
	M178.332,109.395c-10.427,0.187-12.767-5.285-19.296-6.392c-8.928-1.513-6.19,0.895-3.954-5.046
	c4.435,2.108,5.302-1.713,15.938,6.188c0.576,0.428,6.81,3.7,7.125,3.75"/>
<path fill-rule="evenodd" clip-rule="evenodd" fill="none" stroke="#000000" stroke-width="1.0001" stroke-linecap="round" stroke-miterlimit="2.6131" d="
	M153.957,102.832c-11.972,3.731,6.803,1.968,9.235,3.702c0.704,0.501,7.247,1.813,7.452,1.736"/>
<path fill-rule="evenodd" clip-rule="evenodd" fill="none" stroke="#000000" stroke-width="1.0001" stroke-linecap="round" stroke-miterlimit="2.6131" d="
	M156.581,103.019c-0.761,0.238-3.622,0.521-4.125,0.938c0-0.054-2.011,0.938,4.125,0.938c0-0.208,3.1-0.709,2.984-0.863
	c0.252-0.056-3.253,0.516,0.954,1.034c1.677,0.207,2.362-0.113,3.563,0.579"/>
<path fill-rule="evenodd" clip-rule="evenodd" fill="none" stroke="#000000" stroke-width="1.0001" stroke-linecap="round" stroke-miterlimit="2.6131" d="
	M161.269,103.957c-1.517-0.945-13.471-1.066-2.454-0.204c3.024,0.237,8.229,2.946,8.641,3.016"/>
<path fill-rule="evenodd" clip-rule="evenodd" fill="none" stroke="#000000" stroke-width="1.0001" stroke-linecap="round" stroke-miterlimit="2.6131" d="
	M156.581,106.02c0,0,1.125,7.614,1.125,6.188c3.328-0.536-0.16-10.352,0.171-2.813c0.051,1.156,0.204-0.05,0.204,1.125"/>
<path fill-rule="evenodd" clip-rule="evenodd" fill="none" stroke="#000000" stroke-width="1.0001" stroke-linecap="round" stroke-miterlimit="2.6131" d="
	M159.957,124.957c-0.457-1.604-2.339-7.407-0.938-8.438c1.803-2.681,2.625-6.666,2.625-9.75"/>
<path fill-rule="evenodd" clip-rule="evenodd" fill="none" stroke="#000000" stroke-width="1.0001" stroke-linecap="round" stroke-miterlimit="2.6131" d="
	M176.644,109.77c-1.269,0-6.346,1.156-6.563,2.813"/>
<path fill-rule="evenodd" clip-rule="evenodd" fill="none" stroke="#000000" stroke-width="1.0001" stroke-linecap="round" stroke-miterlimit="2.6131" d="
	M168.019,119.52c3.429-2.027,5.16-3.773,8.25-6"/>
<path fill-rule="evenodd" clip-rule="evenodd" fill="none" stroke="#000000" stroke-width="1.0001" stroke-linecap="round" stroke-miterlimit="2.6131" d="
	M161.456,124.394c-2.549,2.824-2.921,7.248-3.75,10.688"/>
<path fill-rule="evenodd" clip-rule="evenodd" fill="none" stroke="#000000" stroke-width="1.0001" stroke-linecap="round" stroke-miterlimit="2.6131" d="
	M147.019,137.145c5.528-3.627,4.242-2.627,8.625-1.5c0.535,1.544,3.893,3.429,1.36,9.562c-0.752,1.823-2.463,3.402-4.548,3.938"/>
<path fill-rule="evenodd" clip-rule="evenodd" fill="none" stroke="#000000" stroke-width="1.0001" stroke-linecap="round" stroke-miterlimit="2.6131" d="
	M148.894,145.77c-1.898-1.123-5.601-0.686-6.75,0.563c2.777-2.001,6.729,0.244,5.609,0.016c-0.464-0.094-2.619-0.36-2.984-0.391"/>
<path fill-rule="evenodd" clip-rule="evenodd" fill="none" stroke="#000000" stroke-width="1.0001" stroke-linecap="round" stroke-miterlimit="2.6131" d="
	M149.269,155.145c0.638,0.419,2.813,1.337,2.813,2.438l0.375,0.188"/>
<path fill-rule="evenodd" clip-rule="evenodd" fill="none" stroke="#000000" stroke-width="1.0001" stroke-linecap="round" stroke-miterlimit="2.6131" d="
	M157.707,144.645c0,1.929,0.505,3.826,0.75,5.813"/>
<path fill-rule="evenodd" clip-rule="evenodd" fill="none" stroke="#000000" stroke-width="1.0001" stroke-linecap="round" stroke-miterlimit="2.6131" d="
	M160.706,158.52c-0.311,2.414,0.614,5.779,1.5,8.25"/>
<path fill-rule="evenodd" clip-rule="evenodd" fill="none" stroke="#000000" stroke-width="1.0001" stroke-linecap="round" stroke-miterlimit="2.6131" d="
	M178.332,86.707c5.124,7.566,6.02,3.326,9.798,15.734c2.909,9.553,5.834,16.162,13.216,22.393c4.873,4.113,2.808,9.41,14.861,10.607
	c8.069,0.801,7.902-1.074,15.016-4.811c0.813-0.426,2.484-1.934,3.172-2.11c0.408-2.384,9.321-5.059,14.609,1.688
	c0.067,0.086,0.494,0.426,0.579,0.375"/>
<path fill-rule="evenodd" clip-rule="evenodd" fill="none" stroke="#000000" stroke-width="1.0001" stroke-linecap="round" stroke-miterlimit="2.6131" d="
	M194.644,111.269c2.658-1.201,4.792-0.649,10.125-3.498c9.171-4.899,8.753-11.494,20.438-6.22c1.083,0.489,6.175,3.342,6.75,4.281"
	/>
<path fill-rule="evenodd" clip-rule="evenodd" fill="none" stroke="#000000" stroke-width="1.0001" stroke-linecap="round" stroke-miterlimit="2.6131" d="
	M191.082,91.77c3.772,6.375,4.096,1.285,6.563,10.875c0.329,1.277,2.913,4.896,3.937,5.25"/>
<path fill-rule="evenodd" clip-rule="evenodd" fill="none" stroke="#000000" stroke-width="1.0001" stroke-linecap="round" stroke-miterlimit="2.6131" d="
	M208.144,103.957c-4.08-1.519-4.285-1.286-7.312-4.312"/>
<path fill-rule="evenodd" clip-rule="evenodd" fill="none" stroke="#000000" stroke-width="1.0001" stroke-linecap="round" stroke-miterlimit="2.6131" d="
	M203.457,120.269c8.642,0,12.625-4.285,16.36-10.688c2.383-4.084,9.364-3,13.264-3c0,0.062,5.876,0.805,6.563,1.264
	c3.558,2.381,5.625,3.29,5.625,8.486"/>
<path fill-rule="evenodd" clip-rule="evenodd" fill="none" stroke="#000000" stroke-width="1.0001" stroke-linecap="round" stroke-miterlimit="2.6131" d="
	M204.769,126.832c6.273,0.607,12.994,3.191,19.623-1.5c6.943-4.914,5.03-4.894,9.579-8.877c3.87-3.389,13.166-0.217,14.861,4.377
	c1.364,3.697,4.315,2.596,1.623,9.686l-0.123,0.627"/>
<path fill-rule="evenodd" clip-rule="evenodd" fill="none" stroke="#000000" stroke-width="1.0001" stroke-linecap="round" stroke-miterlimit="2.6131" d="
	M228.394,135.27c-1.076,1.411-1.452,2.105-1.875,3.75c-1.438,0-3.335,7.998,3.766,4.189c0.416-0.223,1.484-3.083,1.484-3.814
	c3.489,0.275,4.94-5.102,5.063-5.25v-0.375"/>
<path fill-rule="evenodd" clip-rule="evenodd" fill="none" stroke="#000000" stroke-width="1.0001" stroke-linecap="round" stroke-miterlimit="2.6131" d="
	M241.519,130.957c-0.388,1.195-0.755,2.9-0.375,4.125"/>
<path fill-rule="evenodd" clip-rule="evenodd" fill="none" stroke="#000000" stroke-width="1.0001" stroke-linecap="round" stroke-miterlimit="2.6131" d="
	M247.707,130.019c0,2.403,0.468,8.438-2.25,9.563c-3.63,1.502-10.037,13.454-10.875,14.014c-2.895,1.938-7.862,3.31-9.718-0.326
	c-0.26-0.509-0.915-1.178-0.97-1.5"/>
<path fill-rule="evenodd" clip-rule="evenodd" fill="none" stroke="#000000" stroke-width="1.0001" stroke-linecap="round" stroke-miterlimit="2.6131" d="
	M223.332,149.332c1.368,5.615,0.923,16.263-1.265,21.563c-0.109,0.266-0.048,0.832-0.048,1.125"/>
<path fill-rule="evenodd" clip-rule="evenodd" fill="none" stroke="#000000" stroke-width="1.0001" stroke-linecap="round" stroke-miterlimit="2.6131" d="
	M204.957,195.27c-3.373,5.886-16.516,8.817-16.688,9.563"/>
<path fill-rule="evenodd" clip-rule="evenodd" fill="none" stroke="#000000" stroke-width="1.0001" stroke-linecap="round" stroke-miterlimit="2.6131" d="
	M250.519,143.332c-7.815,3.039-13.673,5.631-5.186,12.873c1.036,0.884-0.586-7.893,7.64-4.858c1.167,0.43,3.896-0.048,4.671-0.89"/>
<path fill-rule="evenodd" clip-rule="evenodd" fill="none" stroke="#000000" stroke-width="1.0001" stroke-linecap="round" stroke-miterlimit="2.6131" d="
	M261.019,144.832c-3.03,9.708-4.902,5.796-10.328,11.046c-2.62,2.535,1.115,9.185,2.764,5.642c3.363-7.228,8.642,0.356,12.252-3.563
	"/>
<path fill-rule="evenodd" clip-rule="evenodd" fill="none" stroke="#000000" stroke-width="1.0001" stroke-linecap="round" stroke-miterlimit="2.6131" d="
	M269.269,150.27c-4.349,13.039-4.995,7.425-8.951,12.985c-1.347,1.893,0.901,9.887,5.25,4.452l0.326-0.188"/>
<path fill-rule="evenodd" clip-rule="evenodd" fill="none" stroke="#000000" stroke-width="1.0001" stroke-linecap="round" stroke-miterlimit="2.6131" d="
	M265.894,163.77c1.85,0.637,2.964,1.006,4.688,0.563"/>
<path fill-rule="evenodd" clip-rule="evenodd" fill="none" stroke="#000000" stroke-width="1.0001" stroke-linecap="round" stroke-miterlimit="2.6131" d="
	M276.956,156.457c-4.081,10.625-7.052,10.125-7.655,11.438c-1.786,3.886,3.27,8.051,4.5,2.095c0.904-0.188,3.52,1.04,3.718-0.22"/>
<path fill-rule="evenodd" clip-rule="evenodd" fill="none" stroke="#000000" stroke-width="1.0001" stroke-linecap="round" stroke-miterlimit="2.6131" d="
	M282.769,161.52c-2.664,4.972-0.375,5.748-5.876,10.436c-0.055,0.047-1.897,7.896,5.25,0.75c0.6-0.601,5.191,2.195,6.626-4.811"/>
<path fill-rule="evenodd" clip-rule="evenodd" fill="none" stroke="#000000" stroke-width="1.0001" stroke-linecap="round" stroke-miterlimit="2.6131" d="
	M250.894,131.707c7.313,6.563,10.875,5.438,19.313,16.313c8.438,10.875,17.251,15.188,18.938,18.188"/>
<path fill-rule="evenodd" clip-rule="evenodd" fill="none" stroke="#000000" stroke-width="1.0001" stroke-linecap="round" stroke-miterlimit="2.6131" d="
	M290.456,162.082c-6-6-7.688-9.188-14.063-14.25c-6.375-5.063-12.75-11.813-15.938-15.188c-3.188-3.375-8.063-4.313-8.063-4.313"/>
<path fill-rule="evenodd" clip-rule="evenodd" fill="none" stroke="#000000" stroke-width="1.0001" stroke-linecap="round" stroke-miterlimit="2.6131" d="
	M295.894,158.895c-2.813-5.813-12.563-13.875-15.563-17.625s-22.875-22.875-26.063-24.75c-3.188-1.875-27.187-21.562-32.812-27.562
	c-5.625-6-28.875-20.625-36.938-24.75s-29.438-13.125-33.375-15.188c-3.938-2.062-7.125-2.062-7.125-2.062"/>
<path fill-rule="evenodd" clip-rule="evenodd" fill="none" stroke="#000000" stroke-width="1.0001" stroke-linecap="round" stroke-miterlimit="2.6131" d="
	M159.769,43.769c0-7.917,9.377-12.767,16.923-12.471c8.293,0.325,7.916-3.521,16.452-5.716c2.606-0.67,7.603-3,10.313-3"/>
<path fill-rule="evenodd" clip-rule="evenodd" fill="none" stroke="#000000" stroke-width="1.0001" stroke-linecap="round" stroke-miterlimit="2.6131" d="
	M210.769,28.207c-5.554,1.551-0.629,2.354-9.188,2.063c-12.108-0.413-12.553,9.566-16.077,10.125
	c-4.594,0.729-12.451,1.379-15.048,6"/>
<path fill-rule="evenodd" clip-rule="evenodd" fill="none" stroke="#000000" stroke-width="1.0001" stroke-linecap="round" stroke-miterlimit="2.6131" d="
	M179.831,53.144c9.548-6.57,10.716-2.675,14.063-5.062c7.059-5.036,1.562-7.952,11.063-10.811c3.667-1.104,6.794-0.626,10.688-0.626
	"/>
<path fill-rule="evenodd" clip-rule="evenodd" fill="none" stroke="#000000" stroke-width="1.0001" stroke-linecap="round" stroke-miterlimit="2.6131" d="
	M220.707,43.019c-7.96,2.567-6.98-0.287-14.625,6.204c-5.083,4.315-4.3,5.354-11.218,6.547c-2.197,0.378-3.872,2.618-5.095,4.312"/>
<path fill-rule="evenodd" clip-rule="evenodd" fill="none" stroke="#000000" stroke-width="1.0001" stroke-linecap="round" stroke-miterlimit="2.6131" d="
	M199.707,16.019c5.289,6.768,6.62,9.254,12.594,15.798c1.162,1.272,11.288,13.447,11.593,14.202"/>
<path fill-rule="evenodd" clip-rule="evenodd" fill="none" stroke="#000000" stroke-width="1.0001" stroke-linecap="round" stroke-miterlimit="2.6131" d="
	M228.769,44.519c-1.429-5.27-6.757-11.367-10.639-15.235c-3.167-3.156-8.375-14.167-11.861-14.764"/>
<path fill-rule="evenodd" clip-rule="evenodd" fill="none" stroke="#000000" stroke-width="1.0001" stroke-linecap="round" stroke-miterlimit="2.6131" d="
	M223.706,13.395c5.793,7.972,11.021,17.271,17.063,25.5"/>
<path fill-rule="evenodd" clip-rule="evenodd" fill="none" stroke="#000000" stroke-width="1.0001" stroke-linecap="round" stroke-miterlimit="2.6131" d="
	M246.581,37.957c-2.66-2.578-11.692-17.958-13.751-22.313c-0.455-0.961-1.153-2.603-2.373-2.813"/>
<path fill-rule="evenodd" clip-rule="evenodd" fill="none" stroke="#000000" stroke-width="1.0001" stroke-linecap="round" stroke-miterlimit="2.6131" d="
	M241.519,21.832c10.167-4.233,14.562-2.949,23.25,2.764c5.636,3.706,18.123,0.313,26.079,3.391c0.147,0.058,0.871,0.033,1.108,0.033
	"/>
<path fill-rule="evenodd" clip-rule="evenodd" fill="none" stroke="#000000" stroke-width="1.0001" stroke-linecap="round" stroke-miterlimit="2.6131" d="
	M245.082,30.457c2.183-1.23,10.971-3.115,13.923-0.938c4.785,3.53,7.964,1.035,11.201,1.313"/>
<path fill-rule="evenodd" clip-rule="evenodd" fill="none" stroke="#000000" stroke-width="1.0001" stroke-linecap="round" stroke-miterlimit="2.6131" d="
	M289.894,36.457c6.743-1.669,11.872-1.022,16.875,3.391c5.134,4.527,7.18,11.137,13.5,11.138l0.376-0.091"/>
<path fill-rule="evenodd" clip-rule="evenodd" fill="none" stroke="#000000" stroke-width="1.0001" stroke-linecap="round" stroke-miterlimit="2.6131" d="
	M289.894,44.332c-0.563-3.375-2.25-12.188-5.25-13.5s-5.437-3-10.125-1.125c-4.688,1.875-27.563,7.688-34.875,11.438
	c-7.312,3.75-24,12.75-29.25,16.125c-5.25,3.375-12.188,7.875-12.188,7.875"/>
<path fill-rule="evenodd" clip-rule="evenodd" fill="none" stroke="#000000" stroke-width="1.0001" stroke-linecap="round" stroke-miterlimit="2.6131" d="
	M207.207,71.519c5.812-3.563,24.187-10.5,32.25-13.687c8.063-3.188,30.562-9.375,35.25-10.5c4.688-1.125,21.563-3.188,23.625-2.813
	c2.063,0.375,3.563,1.5,3.563,1.5s2.626,3.937,4.875,10.125c2.25,6.188,1.313,10.125,2.813,19.313
	c1.5,9.187,1.876,10.875,3.375,15.563c1.5,4.687,2.813,4.687,1.313,8.625c-1.5,3.938-6,10.5-6,10.5s-3-1.5-10.688-2.25
	c-7.688-0.75-21.375-1.313-27.75-2.813c-6.375-1.5-22.687-1.875-22.687-1.875"/>
<path fill-rule="evenodd" clip-rule="evenodd" fill="none" stroke="#000000" stroke-width="1.0001" stroke-linecap="round" stroke-miterlimit="2.6131" d="
	M280.144,56.426c-6.329-2.057-9.039,7.591-3.75,8.269c3.251,0.416,4.821,0.293,7.248,3.139c0.764,0.895,8.088-2.997,7.629-3.814
	c-2.46-4.38,4.25-8.611-1.752-9.579c-5.511-0.888-3.451,3.813-8.608,2.43L280.144,56.426z"/>
<path fill-rule="evenodd" clip-rule="evenodd" fill="none" stroke="#000000" stroke-width="1.0001" stroke-linecap="round" stroke-miterlimit="2.6131" d="
	M285.956,84.644c-2.438,7.815-8.361,1.415-2.673,7.265c1.247,1.283,4.424-1.055,7.205,3.595c1.421,2.375,9.576,3.786,6.954-3.359
	c-0.012-0.031,3.993-4.707,0.326-7.313c-0.802-0.57-2.804-0.591-3.75-0.375"/>
<path fill-rule="evenodd" clip-rule="evenodd" fill="none" stroke="#000000" stroke-width="1.0001" stroke-linecap="round" stroke-miterlimit="2.6131" d="
	M260.456,49.207c3.351-0.936,2.273-8.306,4.549-8.25c5.792,0.143,11.951-7.525,11.951,3.375"/>
<path fill-rule="evenodd" clip-rule="evenodd" fill="none" stroke="#000000" stroke-width="1.0001" stroke-linecap="round" stroke-miterlimit="2.6131" d="
	M231.394,82.02c2.007,0.646,15.884-3.783,19.875-4.5"/>
<path fill-rule="evenodd" clip-rule="evenodd" fill="none" stroke="#000000" stroke-width="1.0001" stroke-linecap="round" stroke-miterlimit="2.6131" d="
	M234.582,88.582c2.39-1.01,5.221-2.154,7.688-2.813"/>
<path fill-rule="evenodd" clip-rule="evenodd" fill="none" stroke="#000000" stroke-width="1.0001" stroke-linecap="round" stroke-miterlimit="2.6131" d="
	M305.081,50.332c6.935,0,7.771,8.289,15.327,7.671l0.423,0.016"/>
<path fill-rule="evenodd" clip-rule="evenodd" fill="none" stroke="#000000" stroke-width="1.0001" stroke-linecap="round" stroke-miterlimit="2.6131" d="
	M309.581,64.957c8.468-2.203,6.172,5.997,14.25,0"/>
<path fill-rule="evenodd" clip-rule="evenodd" fill="none" stroke="#000000" stroke-width="1.0001" stroke-linecap="round" stroke-miterlimit="2.6131" d="
	M310.519,75.832c5.766-1.744,4.098,4.162,13.688-2.813"/>
<path fill-rule="evenodd" clip-rule="evenodd" fill="none" stroke="#000000" stroke-width="1.0001" stroke-linecap="round" stroke-miterlimit="2.6131" d="
	M312.956,88.394c5.265-4.113,6.283-1.888,12.375-7.5"/>
<path fill-rule="evenodd" clip-rule="evenodd" fill="none" stroke="#000000" stroke-width="1.0001" stroke-linecap="round" stroke-miterlimit="2.6131" d="
	M315.956,98.707c4.784-3.403,7.293-2.55,11.063-8.063"/>
<path fill-rule="evenodd" clip-rule="evenodd" fill="none" stroke="#000000" stroke-width="1.0001" stroke-linecap="round" stroke-miterlimit="2.6131" d="
	M256.144,110.145c2.926-0.913,3.551-2.591,5.813-3.375"/>
<path fill-rule="evenodd" clip-rule="evenodd" fill="none" stroke="#000000" stroke-width="1.0001" stroke-linecap="round" stroke-miterlimit="2.6131" d="
	M261.394,116.707c1.653-1.038,4.913-2.116,6-3"/>
<path fill-rule="evenodd" clip-rule="evenodd" fill="none" stroke="#000000" stroke-width="1.0001" stroke-linecap="round" stroke-miterlimit="2.6131" d="
	M269.456,122.895c0.77-0.425,3.081-1.95,3.375-2.813"/>
<path fill-rule="evenodd" clip-rule="evenodd" fill="none" stroke="#000000" stroke-width="1.0001" stroke-linecap="round" stroke-miterlimit="2.6131" d="
	M263.269,105.082c7.5,8.813,11.438,15,15.375,22.875c3.938,7.875,5.813,9.75,5.813,9.75"/>
<path fill-rule="evenodd" clip-rule="evenodd" fill="none" stroke="#000000" stroke-width="1.0001" stroke-linecap="round" stroke-miterlimit="2.6131" d="
	M269.269,105.457c4.688,6.562,8.625,14.063,14.063,22.688s10.313,18,11.438,19.5"/>
<path fill-rule="evenodd" clip-rule="evenodd" fill="none" stroke="#000000" stroke-width="1.0001" stroke-linecap="round" stroke-miterlimit="2.6131" d="
	M303.019,152.707c-3.75-6.563-9.187-15.563-11.812-23.438c-2.626-7.875-12.188-21.187-12.188-21.187"/>
<path fill-rule="evenodd" clip-rule="evenodd" fill="none" stroke="#000000" stroke-width="1.0001" stroke-linecap="round" stroke-miterlimit="2.6131" d="
	M286.144,107.707c3.563,4.688,5.625,10.313,9.938,18.938s5.813,15.937,7.5,18.562c1.688,2.625,2.063,6.938,2.063,6.938"/>
<path fill-rule="evenodd" clip-rule="evenodd" fill="none" stroke="#000000" stroke-width="1.0001" stroke-linecap="round" stroke-miterlimit="2.6131" d="
	M304.894,142.395c4.688-0.563,10.313-2.813,12.938-5.625c2.625-2.813,1.688-3.938,3.375-5.813s4.313-3.938,7.125-6.75
	s5.813-7.313,6.375-11.063"/>
<path fill-rule="evenodd" clip-rule="evenodd" fill="none" stroke="#000000" stroke-width="1.0001" stroke-linecap="round" stroke-miterlimit="2.6131" d="
	M332.269,102.269c-3,5.438-1.124,9.75-4.687,13.688c-3.563,3.937-6.751,5.062-10.126,7.5c-3.374,2.438-3.374,3.563-6.938,5.625
	c-3.563,2.063-9.188,2.438-9.188,2.438"/>
<path fill-rule="evenodd" clip-rule="evenodd" fill="none" stroke="#000000" stroke-width="1.0001" stroke-linecap="round" stroke-miterlimit="2.6131" d="
	M294.956,120.457c4.125,0.375,5.813,1.125,10.875-1.875c5.063-3,3.563-3.188,7.876-4.875c4.312-1.688,4.124,0,7.874-3.937
	s7.313-9,8.25-11.438"/>
<path fill-rule="evenodd" clip-rule="evenodd" fill="none" stroke="#000000" stroke-width="1.0001" stroke-linecap="round" stroke-miterlimit="2.6131" d="
	M322.144,43.957c-0.563,9.375-1.875,13.125,0.75,24.938s1.688,9.187,5.438,21.375c3.751,12.188,5.25,15.375,5.25,15.375"/>
<path fill-rule="evenodd" clip-rule="evenodd" fill="none" stroke="#000000" stroke-width="1.0001" stroke-linecap="round" stroke-miterlimit="2.6131" d="
	M338.456,104.52c-5.063-9.375-5.438-9.938-7.313-20.25c-1.875-10.312-4.5-14.812-5.25-24.375
	c-0.749-9.563,0.938-16.125,0.938-16.125"/>
<path fill-rule="evenodd" clip-rule="evenodd" fill="none" stroke="#000000" stroke-width="1.0001" stroke-linecap="round" stroke-miterlimit="2.6131" d="
	M334.145,41.52c3.283-3.709,11.088-6.413,14.935-2.561c2.249,2.25,6.637-0.891,11.502,10.998"/>
<path fill-rule="evenodd" clip-rule="evenodd" fill="none" stroke="#000000" stroke-width="1.0001" stroke-linecap="round" stroke-miterlimit="2.6131" d="
	M330.206,51.832c7.338-0.397,3.998-14.207,18.172-12.782l0.766,0.407"/>
<path fill-rule="evenodd" clip-rule="evenodd" fill="none" stroke="#000000" stroke-width="1.0001" stroke-linecap="round" stroke-miterlimit="2.6131" d="
	M327.582,59.332c4.583,3.156,9.774,1.604,10.874-3"/>
<path fill-rule="evenodd" clip-rule="evenodd" fill="none" stroke="#000000" stroke-width="1.0001" stroke-linecap="round" stroke-miterlimit="2.6131" d="
	M332.456,66.457c11.188-8.523,2.892-7.92,9.702-20.486c0.994-1.834,10.068-3.128,13.972,1.548c3.145,3.768,13.164,7.08,8.625,15.048
	c-0.157,0.276-0.021,0.609-0.424,0.702"/>
<path fill-rule="evenodd" clip-rule="evenodd" fill="none" stroke="#000000" stroke-width="1.0001" stroke-linecap="round" stroke-miterlimit="2.6131" d="
	M356.831,54.457c-5.499-4.966-13.255,3.255-10.875,9c1.546,3.732-5.619,8.87-8.469,10.329l-0.531,0.359"/>
<path fill-rule="evenodd" clip-rule="evenodd" fill="none" stroke="#000000" stroke-width="1.0001" stroke-linecap="round" stroke-miterlimit="2.6131" d="
	M328.894,72.645c9.996,5.701,11.488,5.574,19.827-2.765c3.775-3.775,13.443-4.538,18.048-2.11c3.072,1.619,2.927,7.385,0.563,9.562"
	/>
<path fill-rule="evenodd" clip-rule="evenodd" fill="none" stroke="#000000" stroke-width="1.0001" stroke-linecap="round" stroke-miterlimit="2.6131" d="
	M356.269,70.769c3.258-2.425,8.109,4.587,7.875,7.313"/>
<path fill-rule="evenodd" clip-rule="evenodd" fill="none" stroke="#000000" stroke-width="1.0001" stroke-linecap="round" stroke-miterlimit="2.6131" d="
	M333.206,85.957c8.543,3.214,4.107,2.674,13.564,1.704c8.764-0.899,0.878-9.305,10.795-10.827c0.54-0.083,3.965-0.958,4.328-1.189"
	/>
<path fill-rule="evenodd" clip-rule="evenodd" fill="none" stroke="#000000" stroke-width="1.0001" stroke-linecap="round" stroke-miterlimit="2.6131" d="
	M361.706,80.144c-4.026,0.185-7.038,5.06-6.938,9.375c0.047,2.001-3.442,3.627-4.875,3.75"/>
<path fill-rule="evenodd" clip-rule="evenodd" fill="none" stroke="#000000" stroke-width="1.0001" stroke-linecap="round" stroke-miterlimit="2.6131" d="
	M338.081,95.707c2.311,4.961,12.764,2.231,15.375,2.438"/>
<path fill-rule="evenodd" clip-rule="evenodd" fill="none" stroke="#000000" stroke-width="1.0001" stroke-linecap="round" stroke-miterlimit="2.6131" d="
	M343.145,103.207c3.934,3.109,13.931-2.426,16.548-6.954c3.482-6.027-1.213-9.573,6.327-12.921"/>
<path fill-rule="evenodd" clip-rule="evenodd" fill="none" stroke="#000000" stroke-width="1.0001" stroke-linecap="round" stroke-miterlimit="2.6131" d="
	M371.831,84.644c-2.574,4.302-1.918,5.034-2.608,6.252c-0.403,0.711-2.186,2.403-2.829,2.936"/>
<path fill-rule="evenodd" clip-rule="evenodd" fill="none" stroke="#000000" stroke-width="1.0001" stroke-linecap="round" stroke-miterlimit="2.6131" d="
	M363.582,97.582c-0.182,0.688-0.595,2.534-0.563,3.188"/>
</svg>
